<svg width="160" height="248" viewBox="0 0 160 248" fill="none" xmlns="http://www.w3.org/2000/svg">
<g opacity="0.5">
<path fill-rule="evenodd" clip-rule="evenodd" d="M1.10682 55.4172C0.129182 74.0355 2.01858 93.122 7.10509 112.105C12.1916 131.088 20.0986 148.562 30.2544 164.197L1.10682 55.4172ZM57.3785 196.822C52.8971 192.563 48.622 188.065 44.5752 183.341L3.93711 31.6778C5.07997 25.5637 6.53344 19.5309 8.28484 13.6016L57.3785 196.822ZM80.8122 215.673C76.8928 213.02 73.0741 210.213 69.3664 207.259L13.448 -1.43121C15.1818 -5.84357 17.0855 -10.1835 19.1533 -14.4411L80.8122 215.673ZM102.584 228.321C98.9448 226.529 95.3671 224.618 91.8567 222.59L25.2599 -25.953C27.2859 -29.4646 29.4285 -32.9089 31.6841 -36.2796L102.584 228.321ZM123.286 236.978C119.831 235.777 116.417 234.473 113.047 233.07L38.3715 -45.6243C40.5881 -48.5246 42.8932 -51.3607 45.2842 -54.1278L123.286 236.978ZM143.189 242.652C139.873 241.908 136.584 241.072 133.326 240.146L52.3949 -61.8922C54.754 -64.3231 57.1841 -66.6914 59.6834 -68.9936L143.189 242.652ZM162.44 245.895C159.238 245.532 156.053 245.084 152.889 244.553L67.1338 -75.4903C69.6085 -77.5321 72.1425 -79.5122 74.7341 -81.4278L162.44 245.895ZM181.129 247.038C178.024 247.009 174.931 246.901 171.851 246.714L82.4746 -86.842C85.0487 -88.544 87.6736 -90.1848 90.3476 -91.7616L181.129 247.038ZM199.31 246.289C196.294 246.565 193.284 246.765 190.28 246.89L98.347 -96.2095C101.01 -97.6033 103.718 -98.9355 106.468 -100.204L199.31 246.289ZM217.021 243.782C214.087 244.345 211.154 244.834 208.223 245.249L114.706 -103.76C117.452 -104.865 120.237 -105.909 123.059 -106.888L217.021 243.782ZM234.283 239.598C232.867 240.014 231.442 240.414 230.009 240.799C228.575 241.183 227.141 241.548 225.707 241.896L131.524 -109.598C132.94 -110.014 134.365 -110.414 135.798 -110.798C137.232 -111.183 138.666 -111.548 140.1 -111.896L234.283 239.598ZM251.101 233.76C248.355 234.866 245.57 235.909 242.748 236.888L148.786 -113.782C151.72 -114.345 154.653 -114.833 157.584 -115.249L251.101 233.76ZM267.46 226.21C264.797 227.603 262.089 228.936 259.339 230.204L166.497 -116.289C169.513 -116.565 172.524 -116.765 175.527 -116.89L267.46 226.21ZM283.333 216.842C280.758 218.544 278.134 220.185 275.46 221.762L184.679 -117.037C187.783 -117.009 190.876 -116.9 193.957 -116.714L283.333 216.842ZM298.673 205.49C296.199 207.532 293.665 209.512 291.073 211.428L203.367 -115.895C206.569 -115.532 209.754 -115.084 212.918 -114.553L298.673 205.49ZM313.412 191.892C311.053 194.323 308.623 196.692 306.124 198.994L222.619 -112.652C225.934 -111.908 229.223 -111.072 232.481 -110.146L313.412 191.892ZM327.436 175.624C325.219 178.525 322.914 181.361 320.523 184.128L242.521 -106.977C245.976 -105.776 249.39 -104.473 252.76 -103.07L327.436 175.624ZM340.547 155.953C338.521 159.465 336.379 162.909 334.123 166.28L263.224 -98.3205C266.862 -96.5291 270.44 -94.6176 273.95 -92.5895L340.547 155.953ZM352.359 131.431C350.625 135.844 348.722 140.184 346.654 144.441L284.995 -85.6731C288.914 -83.0199 292.733 -80.2132 296.441 -77.2589L352.359 131.431ZM361.87 98.3223C360.727 104.436 359.274 110.469 357.522 116.398L308.429 -66.8217C312.91 -62.5625 317.185 -58.0647 321.232 -53.3411L361.87 98.3223ZM358.702 17.895C363.789 36.878 365.678 55.9646 364.7 74.5829L335.553 -34.1974C345.709 -18.5623 353.616 -1.08813 358.702 17.895Z" fill="#478EFF"/>
<path d="M358.702 17.895C384.718 114.986 327.099 214.783 230.009 240.799L135.798 -110.798C232.889 -136.814 332.687 -79.1959 358.702 17.895Z" fill="#478EFF"/>
</g>
</svg>
