<svg width="64" height="64" viewBox="0 0 64 64" fill="none" xmlns="http://www.w3.org/2000/svg">
<rect width="64" height="64" rx="12" fill="white"/>
<path d="M22.5328 16.8227C23.3356 16.9886 23.975 17.528 24.3722 18.2406L25.6376 20.5107C26.1037 21.3469 26.4959 22.0505 26.7521 22.6622C27.0238 23.311 27.1852 23.9509 27.1114 24.6583C27.0376 25.3657 26.7477 25.9585 26.3479 26.5374C25.9711 27.083 25.4421 27.6906 24.8135 28.4126L22.9535 30.5492C22.6201 30.932 22.4535 31.1235 22.4382 31.3628C22.423 31.602 22.5596 31.8064 22.8328 32.2151C25.1612 35.6988 28.2993 38.838 31.7859 41.1684C32.1946 41.4416 32.399 41.5782 32.6383 41.563C32.8776 41.5478 33.069 41.3811 33.4519 41.0478L35.5886 39.1876C36.3106 38.559 36.9181 38.03 37.4638 37.6532C38.0426 37.2535 38.6354 36.9635 39.3428 36.8898C40.0503 36.816 40.6901 36.9774 41.339 37.2491C41.9506 37.5052 42.6542 37.8974 43.4902 38.3635L45.7605 39.629C46.4732 40.0262 47.0125 40.6655 47.1785 41.4683C47.3461 42.2795 47.0988 43.0949 46.5526 43.765C44.5708 46.1965 41.3957 47.7447 38.0648 47.0728C36.0174 46.6598 33.9972 45.9717 31.5539 44.5704C26.6446 41.755 22.2429 37.3508 19.4307 32.4473C18.0295 30.0039 17.3414 27.9838 16.9284 25.9363C16.2565 22.6054 17.8046 19.4303 20.2362 17.4485C20.9063 16.9023 21.7216 16.655 22.5328 16.8227Z" fill="#1452E4"/>
</svg>
