<svg width="64" height="64" viewBox="0 0 64 64" fill="none" xmlns="http://www.w3.org/2000/svg">
<rect width="64" height="64" rx="12" fill="white"/>
<path fill-rule="evenodd" clip-rule="evenodd" d="M32.0001 16.7708C29.8485 16.7708 28.1042 18.5151 28.1042 20.6667V24.2839C28.1042 25.6786 27.1975 26.9114 25.8661 27.3268L24.7511 27.6747C22.5321 28.367 21.0209 30.4215 21.0209 32.7461C21.0209 34.1153 22.1309 35.2252 23.5001 35.2252H41.9167C43.286 35.2252 44.3959 34.1153 44.3959 32.7461C44.3959 30.4216 42.8847 28.367 40.6657 27.6747L39.5507 27.3268C38.2193 26.9114 37.3126 25.6786 37.3126 24.2839V20.6667C37.3126 18.5151 35.5684 16.7708 33.4167 16.7708H32.0001ZM23.5001 37.3494H41.9167C42.0986 37.3494 42.278 37.3388 42.4544 37.3183C42.8757 37.2693 43.0864 37.2448 43.2158 37.3303C43.3452 37.4158 43.3952 37.5853 43.4952 37.9242C44.0173 39.6931 44.2395 41.5722 44.3385 43.0833L44.3429 43.15C44.3814 43.7359 44.4176 44.2873 44.3795 44.7451C44.3362 45.2656 44.1892 45.8007 43.759 46.2587C43.3255 46.7202 42.6642 46.9322 42.1529 47.0452C41.5843 47.1707 40.9365 47.2275 40.3112 47.2283C39.6854 47.2291 39.0406 47.1738 38.4764 47.0545C37.9712 46.9476 37.3188 46.7485 36.8858 46.3167C36.4473 45.8794 36.2875 45.3474 36.2196 44.8439C36.1757 44.5182 35.78 44.3414 35.5141 44.5344C35.1285 44.8145 34.7192 45.0642 34.2946 45.2865C32.491 46.2308 30.3421 46.7214 28.335 46.971C26.3166 47.222 24.3735 47.2372 22.9417 47.1911C22.2238 47.168 21.6296 47.1293 21.2129 47.0962C20.4973 46.971 19.865 46.766 19.7076 46.4358C19.5502 46.1056 19.5738 45.7177 19.7699 45.4089C20.7567 43.8554 21.4835 41.9935 21.9351 40.2862C22.133 39.5381 22.2718 38.8438 22.3587 38.2374C22.4242 37.7801 22.4569 37.5514 22.5779 37.4474C22.6988 37.3433 22.9538 37.3453 23.4639 37.3492L23.5001 37.3494Z" fill="#0C1570"/>
</svg>
