<svg width="977" height="542" viewBox="0 0 977 542" fill="none" xmlns="http://www.w3.org/2000/svg">
<g filter="url(#filter0_di_35_117)">
<rect x="893" y="80" width="64" height="64" rx="16" fill="#FEF0CB"/>
<g clip-path="url(#clip0_35_117)">
<path d="M922.874 105.414L927.887 114.375L921.558 114.142L922.874 105.414Z" fill="#F4A93F"/>
<path d="M925.279 107.129L928.995 114.375L921.4 114.142L925.279 107.129Z" fill="#F4A83E"/>
<path d="M924.581 108.371L927.832 114.375L921.479 114.31L924.581 108.371Z" fill="#E88634"/>
<path d="M927.99 107.76L928.995 114.375L921.321 114.295L927.99 107.76Z" fill="#F8CA51"/>
<path d="M925.279 116.398L929.079 114.295L921.321 114.221L925.279 116.398Z" fill="#F8CA51"/>
<path d="M902.003 111.308C902.169 116.856 912.624 121.22 925.498 121.22V119.076C915.135 119.023 904.266 115.766 904.092 111.308H902.003Z" fill="#E88634"/>
<path d="M937.122 90.8892C932.356 88.2622 923.446 95.3719 917.008 106.812L918.818 107.884C924.043 98.7016 932.227 90.6708 936.077 92.7454L937.122 90.8892Z" fill="#F9CB52"/>
<path d="M902.003 111.308C902.169 105.759 912.624 101.396 925.498 101.396V103.539C915.135 103.592 904.266 106.849 904.092 111.308H902.003Z" fill="#E88634"/>
<path d="M913.761 90.4117C909.16 93.3334 910.706 104.806 917.142 116.247L918.952 115.175C913.815 105.94 911.129 94.6518 914.805 92.2683L913.761 90.4117Z" fill="#F4A73E"/>
<path d="M913.761 132.321C909.161 129.399 910.705 117.926 917.142 106.486L918.952 107.557C913.815 116.792 911.129 128.081 914.805 130.464L913.761 132.321Z" fill="#F9CB52"/>
<path d="M913.488 90.5457C918.254 87.9187 927.165 95.0281 933.602 106.468L931.792 107.54C926.567 98.3581 918.383 90.3279 914.533 92.4022L913.488 90.5457Z" fill="#F4A73E"/>
<path d="M948.995 111.308C948.829 105.759 938.373 101.396 925.5 101.396V103.539C935.862 103.592 946.732 106.849 946.906 111.308H948.995Z" fill="#E88634"/>
<path d="M913.551 132.338C913.579 132.355 913.607 132.373 913.635 132.389C918.372 135.195 927.374 128.063 933.863 116.532L932.063 115.443C926.796 124.706 918.513 132.804 914.701 130.546C914.662 130.523 914.624 130.499 914.587 130.474L913.551 132.338Z" fill="#F9CB52"/>
<path d="M937.256 132.187C932.489 134.813 923.58 127.703 917.143 116.264L917.076 116.143L918.86 115.029C924.078 124.272 932.328 132.406 936.204 130.335L937.256 132.187Z" fill="#F4A73E"/>
<path d="M948.995 111.04C948.996 111.084 948.997 111.129 948.997 111.174C948.997 116.786 938.477 121.22 925.5 121.22V119.076C935.946 119.023 946.908 115.713 946.908 111.199C946.908 111.146 946.907 111.093 946.904 111.04H948.995Z" fill="#E88634"/>
<path d="M936.987 132.319C941.584 129.395 940.038 117.924 933.603 106.486L933.488 106.282L931.655 107.309L931.667 107.331C936.876 116.589 939.635 128.017 935.962 130.45L936.987 132.319Z" fill="#F4A73E"/>
<path d="M937.111 90.7552C941.711 93.6769 940.166 105.15 933.729 116.59L931.92 115.518C937.057 106.283 939.742 94.9953 936.066 92.6115L937.111 90.7552Z" fill="#F9CB52"/>
</g>
</g>
<g filter="url(#filter1_di_35_117)">
<rect x="20" y="169" width="64" height="64" rx="16" fill="#AEDB95"/>
<path d="M50.232 179.411L51.4673 181.731C51.745 182.159 52.0459 182.538 52.4003 182.891C53.4393 183.917 54.4077 185.012 55.299 186.169C57.3921 188.917 58.8038 191.969 59.812 195.27C60.4167 197.286 60.745 199.355 60.7696 201.446C60.8708 207.699 58.7272 213.069 54.4051 217.531C53.7021 218.239 52.9426 218.888 52.1341 219.472C51.706 219.472 51.5035 219.144 51.327 218.842C51.0056 218.281 50.7918 217.665 50.6964 217.026C50.5445 216.27 50.4447 215.513 50.4938 214.732V214.379C50.4591 214.304 50.0816 179.589 50.232 179.411Z" fill="#599636"/>
<path d="M50.232 179.334C50.1814 179.233 50.1307 179.309 50.0801 179.359C50.1047 179.865 49.9282 180.316 49.6519 180.747C49.3482 181.175 48.9461 181.504 48.5425 181.857C46.3005 183.798 44.5358 186.142 43.1226 188.765C41.2421 192.294 40.273 196.077 39.9982 200.059C39.8723 201.495 40.4524 206.564 40.9051 208.026C42.1404 211.909 44.3593 215.162 47.2334 217.985C47.9393 218.665 48.6944 219.296 49.4755 219.902C49.7026 219.902 49.7272 219.699 49.7792 219.549C49.8788 219.227 49.9547 218.898 50.0063 218.565L50.5126 214.784L50.232 179.334Z" fill="#6CAC48"/>
<path d="M51.4673 221.008C51.5179 220.43 51.7956 219.949 52.0979 219.471C51.7942 219.345 51.5685 219.095 51.392 218.815C51.2399 218.551 51.1139 218.273 51.016 217.984C50.663 216.925 50.5878 215.814 50.4865 214.732V214.077C50.3607 214.178 50.3347 215.034 50.3347 215.162C50.2611 216.305 50.1093 217.442 49.8805 218.565C49.8053 219.019 49.7546 219.472 49.4755 219.876C49.4755 219.926 49.4755 219.977 49.5001 220.052C49.9542 221.389 50.0786 222.75 50.1553 224.137V224.643C50.1553 225.248 50.1307 225.121 50.6326 225.323C50.8351 225.398 51.0608 225.424 51.2633 225.575C51.4152 225.575 51.4398 225.449 51.4398 225.348L51.3646 224.516V222.196C51.34 221.791 51.4152 221.389 51.4658 221.01L51.4673 221.008Z" fill="#C2BFBF"/>
</g>
<g filter="url(#filter2_di_35_117)">
<rect x="493" y="16" width="64" height="64" rx="16" fill="#B5E1FB"/>
<g clip-path="url(#clip1_35_117)">
<path d="M514.671 54.7737L508 47.9982L529.66 26H543M543 46.2999H529.66L524.663 51.3753L531.334 58.1508" fill="#42A5F5" fill-opacity="0.8"/>
<path d="M524.663 64.9246L529.66 70H543L531.334 58.1509" fill="#0D47A1"/>
<path d="M518.008 58.1544L524.668 51.3878L531.329 58.1527L524.668 64.9193L518.008 58.1544Z" fill="#42A5F5"/>
<path d="M524.668 64.9193L531.329 58.1544L532.258 59.0987L525.598 65.8636L524.668 64.9193Z" fill="url(#paint0_linear_35_117)"/>
<path d="M524.663 64.9246L534.561 61.4514L531.334 58.149" fill="url(#paint1_linear_35_117)"/>
</g>
</g>
<g filter="url(#filter3_di_35_117)">
<rect x="266" y="454" width="64" height="64" rx="16" fill="#FFD6AC"/>
<g clip-path="url(#clip2_35_117)">
<path d="M281 500.764L281.29 500.357L295.017 474.264L295.046 473.988L288.995 462.602C288.488 461.648 287.061 461.889 286.894 462.957L281 500.764Z" fill="#FFC24A"/>
<path d="M281.171 500.454L281.391 500.025L294.974 474.206L288.938 462.773C288.436 461.829 287.162 462.07 286.998 463.126L281.171 500.454Z" fill="#FFA712"/>
<g filter="url(#filter4_i_35_117)">
<path d="M281.171 500.454L281.391 500.025L294.974 474.206L288.938 462.773C288.436 461.829 287.162 462.07 286.998 463.126L281.171 500.454Z" fill="black"/>
</g>
<path d="M299.458 482.601L303.963 477.978L299.456 469.359C299.029 468.544 297.834 468.541 297.411 469.359L295.003 473.96V474.351L299.458 482.601H299.458Z" fill="#F4BD62"/>
<path d="M299.377 482.408L303.758 477.914L299.377 469.559C298.961 468.766 297.951 468.682 297.539 469.478L295.119 474.149L295.046 474.388L299.377 482.408Z" fill="#FFA50E"/>
<g filter="url(#filter5_i_35_117)">
<path d="M299.377 482.408L303.758 477.914L299.377 469.559C298.961 468.766 297.951 468.682 297.539 469.478L295.119 474.149L295.046 474.388L299.377 482.408Z" fill="black"/>
</g>
<path d="M281 500.764L281.132 500.631L281.609 500.437L299.175 482.906L299.397 482.299L295.015 473.935L281 500.764Z" fill="#F6820C"/>
<path d="M300.02 509.605L315.917 500.724L311.378 472.716C311.236 471.84 310.163 471.494 309.536 472.122L281 500.764L296.806 509.604C297.297 509.879 297.85 510.023 298.413 510.024C298.976 510.024 299.529 509.88 300.02 509.605Z" fill="#FDE068"/>
<path d="M315.775 500.649L311.27 472.854C311.129 471.985 310.237 471.625 309.615 472.248L281.176 500.709L296.809 509.462C297.296 509.735 297.845 509.878 298.404 509.878C298.962 509.878 299.511 509.735 299.999 509.463L315.775 500.649L315.775 500.649Z" fill="#FCCA3F"/>
<path d="M300.02 509.343C299.529 509.618 298.976 509.762 298.413 509.762C297.85 509.762 297.297 509.617 296.806 509.343L281.127 500.629L281 500.764L296.806 509.604C297.297 509.879 297.85 510.023 298.413 510.024C298.976 510.024 299.529 509.88 300.02 509.605L315.917 500.724L315.878 500.484L300.02 509.343L300.02 509.343Z" fill="#EEAB37"/>
</g>
</g>
<g filter="url(#filter6_di_35_117)">
<rect x="766" y="390" width="64" height="64" rx="16" fill="#EAD9FF"/>
<path d="M798.435 422.065C798.435 417.645 802.018 414.043 806.457 414.043C810.877 414.043 814.478 417.627 814.478 422.065C814.478 426.485 810.895 430.087 806.457 430.087C802.036 430.087 798.435 426.485 798.435 422.065Z" fill="#1ABCFE"/>
<path d="M782.522 437.978C782.522 433.558 786.076 429.957 790.478 429.957H798.435V437.978C798.435 442.398 794.88 446 790.478 446C786.076 446 782.522 442.417 782.522 437.978Z" fill="#0ACF83"/>
<path d="M798.435 398.018V414.043H806.457C810.877 414.043 814.478 410.46 814.478 406.022C814.478 401.602 810.895 398 806.457 398H798.435V398.018Z" fill="#FF7262"/>
<path d="M782.522 406.087C782.522 410.471 786.076 414.043 790.478 414.043H798.435V398.13H790.478C786.076 398.13 782.522 401.685 782.522 406.087Z" fill="#F24E1E"/>
<path d="M782.522 422.065C782.522 426.485 786.076 430.087 790.478 430.087H798.435V414.043H790.478C786.076 414.043 782.522 417.645 782.522 422.065Z" fill="#A259FF"/>
</g>
<defs>
<filter id="filter0_di_35_117" x="873" y="64" width="104" height="104" filterUnits="userSpaceOnUse" color-interpolation-filters="sRGB">
<feFlood flood-opacity="0" result="BackgroundImageFix"/>
<feColorMatrix in="SourceAlpha" type="matrix" values="0 0 0 0 0 0 0 0 0 0 0 0 0 0 0 0 0 0 127 0" result="hardAlpha"/>
<feOffset dy="4"/>
<feGaussianBlur stdDeviation="10"/>
<feComposite in2="hardAlpha" operator="out"/>
<feColorMatrix type="matrix" values="0 0 0 0 1 0 0 0 0 0.933333 0 0 0 0 0.752941 0 0 0 0.4 0"/>
<feBlend mode="normal" in2="BackgroundImageFix" result="effect1_dropShadow_35_117"/>
<feBlend mode="normal" in="SourceGraphic" in2="effect1_dropShadow_35_117" result="shape"/>
<feColorMatrix in="SourceAlpha" type="matrix" values="0 0 0 0 0 0 0 0 0 0 0 0 0 0 0 0 0 0 127 0" result="hardAlpha"/>
<feOffset dy="-1"/>
<feGaussianBlur stdDeviation="0.5"/>
<feComposite in2="hardAlpha" operator="arithmetic" k2="-1" k3="1"/>
<feColorMatrix type="matrix" values="0 0 0 0 0 0 0 0 0 0 0 0 0 0 0 0 0 0 0.2 0"/>
<feBlend mode="normal" in2="shape" result="effect2_innerShadow_35_117"/>
</filter>
<filter id="filter1_di_35_117" x="0" y="153" width="104" height="104" filterUnits="userSpaceOnUse" color-interpolation-filters="sRGB">
<feFlood flood-opacity="0" result="BackgroundImageFix"/>
<feColorMatrix in="SourceAlpha" type="matrix" values="0 0 0 0 0 0 0 0 0 0 0 0 0 0 0 0 0 0 127 0" result="hardAlpha"/>
<feOffset dy="4"/>
<feGaussianBlur stdDeviation="10"/>
<feComposite in2="hardAlpha" operator="out"/>
<feColorMatrix type="matrix" values="0 0 0 0 0.34902 0 0 0 0 0.588235 0 0 0 0 0.211765 0 0 0 0.4 0"/>
<feBlend mode="normal" in2="BackgroundImageFix" result="effect1_dropShadow_35_117"/>
<feBlend mode="normal" in="SourceGraphic" in2="effect1_dropShadow_35_117" result="shape"/>
<feColorMatrix in="SourceAlpha" type="matrix" values="0 0 0 0 0 0 0 0 0 0 0 0 0 0 0 0 0 0 127 0" result="hardAlpha"/>
<feOffset dy="-1"/>
<feGaussianBlur stdDeviation="0.5"/>
<feComposite in2="hardAlpha" operator="arithmetic" k2="-1" k3="1"/>
<feColorMatrix type="matrix" values="0 0 0 0 0 0 0 0 0 0 0 0 0 0 0 0 0 0 0.2 0"/>
<feBlend mode="normal" in2="shape" result="effect2_innerShadow_35_117"/>
</filter>
<filter id="filter2_di_35_117" x="473" y="0" width="104" height="104" filterUnits="userSpaceOnUse" color-interpolation-filters="sRGB">
<feFlood flood-opacity="0" result="BackgroundImageFix"/>
<feColorMatrix in="SourceAlpha" type="matrix" values="0 0 0 0 0 0 0 0 0 0 0 0 0 0 0 0 0 0 127 0" result="hardAlpha"/>
<feOffset dy="4"/>
<feGaussianBlur stdDeviation="10"/>
<feComposite in2="hardAlpha" operator="out"/>
<feColorMatrix type="matrix" values="0 0 0 0 0.0784314 0 0 0 0 0.321569 0 0 0 0 0.894118 0 0 0 0.12 0"/>
<feBlend mode="normal" in2="BackgroundImageFix" result="effect1_dropShadow_35_117"/>
<feBlend mode="normal" in="SourceGraphic" in2="effect1_dropShadow_35_117" result="shape"/>
<feColorMatrix in="SourceAlpha" type="matrix" values="0 0 0 0 0 0 0 0 0 0 0 0 0 0 0 0 0 0 127 0" result="hardAlpha"/>
<feOffset dy="-1"/>
<feGaussianBlur stdDeviation="0.5"/>
<feComposite in2="hardAlpha" operator="arithmetic" k2="-1" k3="1"/>
<feColorMatrix type="matrix" values="0 0 0 0 0 0 0 0 0 0 0 0 0 0 0 0 0 0 0.2 0"/>
<feBlend mode="normal" in2="shape" result="effect2_innerShadow_35_117"/>
</filter>
<filter id="filter3_di_35_117" x="246" y="438" width="104" height="104" filterUnits="userSpaceOnUse" color-interpolation-filters="sRGB">
<feFlood flood-opacity="0" result="BackgroundImageFix"/>
<feColorMatrix in="SourceAlpha" type="matrix" values="0 0 0 0 0 0 0 0 0 0 0 0 0 0 0 0 0 0 127 0" result="hardAlpha"/>
<feOffset dy="4"/>
<feGaussianBlur stdDeviation="10"/>
<feComposite in2="hardAlpha" operator="out"/>
<feColorMatrix type="matrix" values="0 0 0 0 1 0 0 0 0 0.74902 0 0 0 0 0.490196 0 0 0 0.12 0"/>
<feBlend mode="normal" in2="BackgroundImageFix" result="effect1_dropShadow_35_117"/>
<feBlend mode="normal" in="SourceGraphic" in2="effect1_dropShadow_35_117" result="shape"/>
<feColorMatrix in="SourceAlpha" type="matrix" values="0 0 0 0 0 0 0 0 0 0 0 0 0 0 0 0 0 0 127 0" result="hardAlpha"/>
<feOffset dy="-1"/>
<feGaussianBlur stdDeviation="0.5"/>
<feComposite in2="hardAlpha" operator="arithmetic" k2="-1" k3="1"/>
<feColorMatrix type="matrix" values="0 0 0 0 0 0 0 0 0 0 0 0 0 0 0 0 0 0 0.2 0"/>
<feBlend mode="normal" in2="shape" result="effect2_innerShadow_35_117"/>
</filter>
<filter id="filter4_i_35_117" x="281.171" y="462.183" width="13.8029" height="38.2706" filterUnits="userSpaceOnUse" color-interpolation-filters="sRGB">
<feFlood flood-opacity="0" result="BackgroundImageFix"/>
<feBlend mode="normal" in="SourceGraphic" in2="BackgroundImageFix" result="shape"/>
<feColorMatrix in="SourceAlpha" type="matrix" values="0 0 0 0 0 0 0 0 0 0 0 0 0 0 0 0 0 0 127 0" result="hardAlpha"/>
<feOffset/>
<feGaussianBlur stdDeviation="124.619"/>
<feComposite in2="hardAlpha" operator="arithmetic" k2="-1" k3="1"/>
<feColorMatrix type="matrix" values="0 0 0 0 0 0 0 0 0 0 0 0 0 0 0 0 0 0 0.06 0"/>
<feBlend mode="normal" in2="shape" result="effect1_innerShadow_35_117"/>
</filter>
<filter id="filter5_i_35_117" x="295.046" y="468.921" width="8.7113" height="13.4871" filterUnits="userSpaceOnUse" color-interpolation-filters="sRGB">
<feFlood flood-opacity="0" result="BackgroundImageFix"/>
<feBlend mode="normal" in="SourceGraphic" in2="BackgroundImageFix" result="shape"/>
<feColorMatrix in="SourceAlpha" type="matrix" values="0 0 0 0 0 0 0 0 0 0 0 0 0 0 0 0 0 0 127 0" result="hardAlpha"/>
<feOffset dx="7.12109" dy="-64.0898"/>
<feGaussianBlur stdDeviation="24.9238"/>
<feComposite in2="hardAlpha" operator="arithmetic" k2="-1" k3="1"/>
<feColorMatrix type="matrix" values="0 0 0 0 0 0 0 0 0 0 0 0 0 0 0 0 0 0 0.09 0"/>
<feBlend mode="normal" in2="shape" result="effect1_innerShadow_35_117"/>
</filter>
<filter id="filter6_di_35_117" x="746" y="374" width="104" height="104" filterUnits="userSpaceOnUse" color-interpolation-filters="sRGB">
<feFlood flood-opacity="0" result="BackgroundImageFix"/>
<feColorMatrix in="SourceAlpha" type="matrix" values="0 0 0 0 0 0 0 0 0 0 0 0 0 0 0 0 0 0 127 0" result="hardAlpha"/>
<feOffset dy="4"/>
<feGaussianBlur stdDeviation="10"/>
<feComposite in2="hardAlpha" operator="out"/>
<feColorMatrix type="matrix" values="0 0 0 0 0.917647 0 0 0 0 0.85098 0 0 0 0 1 0 0 0 0.4 0"/>
<feBlend mode="normal" in2="BackgroundImageFix" result="effect1_dropShadow_35_117"/>
<feBlend mode="normal" in="SourceGraphic" in2="effect1_dropShadow_35_117" result="shape"/>
<feColorMatrix in="SourceAlpha" type="matrix" values="0 0 0 0 0 0 0 0 0 0 0 0 0 0 0 0 0 0 127 0" result="hardAlpha"/>
<feOffset dy="-1"/>
<feGaussianBlur stdDeviation="0.5"/>
<feComposite in2="hardAlpha" operator="arithmetic" k2="-1" k3="1"/>
<feColorMatrix type="matrix" values="0 0 0 0 0 0 0 0 0 0 0 0 0 0 0 0 0 0 0.2 0"/>
<feBlend mode="normal" in2="shape" result="effect2_innerShadow_35_117"/>
</filter>
<linearGradient id="paint0_linear_35_117" x1="528" y1="61.5356" x2="528.944" y2="62.4652" gradientUnits="userSpaceOnUse">
<stop offset="0.2" stop-opacity="0.15"/>
<stop offset="0.85" stop-color="#616161" stop-opacity="0.01"/>
</linearGradient>
<linearGradient id="paint1_linear_35_117" x1="524.665" y1="61.537" x2="534.563" y2="61.537" gradientUnits="userSpaceOnUse">
<stop offset="0.2" stop-opacity="0.55"/>
<stop offset="0.85" stop-color="#616161" stop-opacity="0.01"/>
</linearGradient>
<clipPath id="clip0_35_117">
<rect width="47" height="43" fill="white" transform="translate(902 90)"/>
</clipPath>
<clipPath id="clip1_35_117">
<rect width="35" height="44" fill="white" transform="translate(508 26)"/>
</clipPath>
<clipPath id="clip2_35_117">
<rect width="35" height="48.0822" fill="white" transform="translate(281 462)"/>
</clipPath>
</defs>
</svg>
