<svg width="365" height="493" viewBox="0 0 365 493" fill="none" xmlns="http://www.w3.org/2000/svg">
<g filter="url(#filter0_di_35_118)">
<rect x="315" y="29" width="38" height="38" rx="9.5" fill="#FEF0CB"/>
<g clip-path="url(#clip0_35_118)">
<path d="M332.738 44.0896L335.714 49.4103L331.956 49.2716L332.738 44.0896Z" fill="#F4A93F"/>
<path d="M334.165 45.1077L336.372 49.4104L331.862 49.2717L334.165 45.1077Z" fill="#F4A83E"/>
<path d="M333.751 45.8453L335.681 49.4103L331.909 49.3716L333.751 45.8453Z" fill="#E88634"/>
<path d="M335.775 45.4827L336.372 49.4103L331.815 49.3629L335.775 45.4827Z" fill="#F8CA51"/>
<path d="M334.165 50.6112L336.422 49.3629L331.815 49.3188L334.165 50.6112Z" fill="#F8CA51"/>
<path d="M320.346 47.589C320.444 50.8835 326.652 53.4744 334.296 53.4744V52.2015C328.143 52.17 321.689 50.2363 321.586 47.589H320.346Z" fill="#E88634"/>
<path d="M341.197 35.4655C338.368 33.9057 333.077 38.1271 329.255 44.9196L330.329 45.556C333.432 40.1041 338.291 35.3358 340.577 36.5676L341.197 35.4655Z" fill="#F9CB52"/>
<path d="M320.346 47.589C320.444 44.2945 326.652 41.7036 334.296 41.7036V42.9764C328.143 43.0079 321.689 44.9418 321.586 47.589H320.346Z" fill="#E88634"/>
<path d="M327.327 35.182C324.595 36.9168 325.513 43.7288 329.335 50.5215L330.409 49.885C327.359 44.4018 325.764 37.6995 327.947 36.2843L327.327 35.182Z" fill="#F4A73E"/>
<path d="M327.327 60.0654C324.595 58.3306 325.513 51.5184 329.335 44.7258L330.409 45.3622C327.359 50.8455 325.764 57.5478 327.947 58.9632L327.327 60.0654Z" fill="#F9CB52"/>
<path d="M327.165 35.2615C329.995 33.7017 335.285 37.923 339.107 44.7156L338.033 45.3519C334.93 39.9001 330.071 35.1322 327.785 36.3638L327.165 35.2615Z" fill="#F4A73E"/>
<path d="M348.247 47.589C348.148 44.2945 341.94 41.7036 334.297 41.7036V42.9764C340.449 43.0079 346.903 44.9418 347.007 47.589H348.247Z" fill="#E88634"/>
<path d="M327.202 60.0757C327.219 60.086 327.236 60.0962 327.252 60.1059C330.065 61.7722 335.41 57.5376 339.262 50.6907L338.194 50.0439C335.066 55.5444 330.149 60.3526 327.885 59.0115C327.862 58.998 327.839 58.9838 327.817 58.969L327.202 60.0757Z" fill="#F9CB52"/>
<path d="M341.277 59.9862C338.447 61.545 333.157 57.3238 329.335 50.5317L329.295 50.4601L330.355 49.7986C333.452 55.2866 338.351 60.1158 340.652 58.8864L341.277 59.9862Z" fill="#F4A73E"/>
<path d="M348.247 47.4299C348.248 47.4563 348.248 47.4829 348.248 47.5095C348.248 50.8419 342.002 53.4744 334.297 53.4744V52.2015C340.499 52.17 347.008 50.2045 347.008 47.5246C347.008 47.493 347.007 47.4614 347.005 47.4299H348.247Z" fill="#E88634"/>
<path d="M341.117 60.0644C343.847 58.3284 342.929 51.5173 339.108 44.7259L339.04 44.605L337.951 45.215L337.958 45.228C341.051 50.725 342.69 57.51 340.508 58.955L341.117 60.0644Z" fill="#F4A73E"/>
<path d="M341.191 35.3859C343.922 37.1206 343.005 43.9329 339.183 50.7254L338.109 50.089C341.159 44.6057 342.753 37.9034 340.571 36.488L341.191 35.3859Z" fill="#F9CB52"/>
</g>
</g>
<g filter="url(#filter1_di_35_118)">
<rect x="9" y="158" width="38" height="38" rx="9.5" fill="#AEDB95"/>
<path d="M26.9503 164.181L27.6837 165.559C27.8486 165.813 28.0272 166.038 28.2377 166.248C28.8546 166.857 29.4296 167.507 29.9588 168.194C31.2015 169.826 32.0398 171.638 32.6384 173.598C32.9974 174.795 33.1923 176.023 33.2069 177.265C33.267 180.978 31.9942 184.166 29.428 186.815C29.0106 187.235 28.5596 187.621 28.0796 187.968C27.8254 187.968 27.7052 187.773 27.6004 187.593C27.4096 187.26 27.2826 186.895 27.2259 186.515C27.1358 186.066 27.0765 185.617 27.1057 185.153V184.944C27.0851 184.899 26.8609 164.287 26.9503 164.181Z" fill="#599636"/>
<path d="M26.9502 164.136C26.9202 164.076 26.8901 164.121 26.86 164.15C26.8746 164.451 26.7699 164.719 26.6058 164.975C26.4255 165.229 26.1867 165.424 25.9471 165.634C24.6159 166.786 23.5681 168.178 22.729 169.735C21.6125 171.831 21.0371 174.077 20.8739 176.441C20.7992 177.294 21.1436 180.303 21.4124 181.172C22.1458 183.477 23.4633 185.408 25.1698 187.085C25.5889 187.489 26.0373 187.863 26.501 188.223C26.6359 188.223 26.6505 188.103 26.6814 188.013C26.7405 187.822 26.7856 187.627 26.8162 187.429L27.1168 185.184L26.9502 164.136Z" fill="#6CAC48"/>
<path d="M27.6837 188.88C27.7137 188.536 27.8786 188.251 28.0581 187.967C27.8778 187.892 27.7438 187.744 27.639 187.578C27.5487 187.421 27.4739 187.256 27.4157 187.084C27.2061 186.455 27.1615 185.796 27.1014 185.153V184.764C27.0267 184.824 27.0112 185.333 27.0112 185.408C26.9675 186.087 26.8774 186.763 26.7415 187.429C26.6969 187.699 26.6668 187.968 26.501 188.207C26.501 188.237 26.501 188.268 26.5156 188.312C26.7853 189.106 26.8592 189.914 26.9047 190.738V191.038C26.9047 191.397 26.8901 191.322 27.1881 191.442C27.3084 191.486 27.4423 191.502 27.5626 191.591C27.6527 191.591 27.6673 191.517 27.6673 191.456L27.6227 190.963V189.585C27.6081 189.344 27.6527 189.106 27.6828 188.881L27.6837 188.88Z" fill="#C2BFBF"/>
</g>
<g filter="url(#filter2_di_35_118)">
<rect x="151" y="10" width="38" height="38" rx="9.5" fill="#B5E1FB"/>
<g clip-path="url(#clip1_35_118)">
<path d="M163.867 33.0219L159.906 28.9989L172.767 15.9375H180.688M180.688 27.9906H172.767L169.8 31.0041L173.761 35.0271" fill="#42A5F5" fill-opacity="0.8"/>
<path d="M169.8 39.049L172.767 42.0625H180.688L173.761 35.0271" fill="#0D47A1"/>
<path d="M165.849 35.0292L169.803 31.0115L173.758 35.0281L169.803 39.0458L165.849 35.0292Z" fill="#42A5F5"/>
<path d="M169.803 39.0458L173.758 35.0292L174.31 35.5899L170.355 39.6065L169.803 39.0458Z" fill="url(#paint0_linear_35_118)"/>
<path d="M169.8 39.049L175.677 36.9868L173.761 35.026" fill="url(#paint1_linear_35_118)"/>
</g>
</g>
<g filter="url(#filter3_di_35_118)">
<rect x="47" y="440" width="38" height="38" rx="9.5" fill="#FFD6AC"/>
<g clip-path="url(#clip2_35_118)">
<path d="M55.9062 467.766L56.0786 467.524L64.2291 452.032L64.2463 451.868L60.6535 445.107C60.3523 444.541 59.5048 444.684 59.4061 445.318L55.9062 467.766Z" fill="#FFC24A"/>
<path d="M56.0079 467.582L56.1382 467.327L64.2034 451.997L60.6194 445.209C60.3216 444.649 59.5652 444.791 59.4674 445.419L56.0079 467.582Z" fill="#FFA712"/>
<g filter="url(#filter4_i_35_118)">
<path d="M56.0079 467.582L56.1382 467.327L64.2034 451.997L60.6194 445.209C60.3216 444.649 59.5652 444.791 59.4674 445.419L56.0079 467.582Z" fill="black"/>
</g>
<path d="M66.8655 456.982L69.5407 454.237L66.8647 449.12C66.6107 448.635 65.9014 448.634 65.6501 449.12L64.2203 451.851V452.084L66.8654 456.982H66.8655Z" fill="#F4BD62"/>
<path d="M66.8178 456.867L69.4186 454.199L66.8178 449.238C66.5709 448.767 65.9709 448.718 65.7265 449.19L64.2893 451.964L64.2463 452.106L66.8178 456.867Z" fill="#FFA50E"/>
<g filter="url(#filter5_i_35_118)">
<path d="M66.8178 456.867L69.4186 454.199L66.8178 449.238C66.5709 448.767 65.9709 448.718 65.7265 449.19L64.2893 451.964L64.2463 452.106L66.8178 456.867Z" fill="black"/>
</g>
<path d="M55.9062 467.766L55.9843 467.687L56.2681 467.572L66.6975 457.163L66.8296 456.803L64.2279 451.836L55.9062 467.766Z" fill="#F6820C"/>
<path d="M67.1996 473.016L76.6385 467.742L73.9431 451.113C73.8587 450.592 73.2216 450.387 72.8498 450.76L55.9062 467.766L65.2909 473.015C65.5826 473.178 65.9111 473.264 66.2452 473.264C66.5793 473.264 66.9079 473.179 67.1996 473.016Z" fill="#FDE068"/>
<path d="M76.5539 467.698L73.879 451.195C73.7954 450.678 73.2654 450.465 72.8965 450.835L56.011 467.734L65.2927 472.931C65.5821 473.093 65.9081 473.178 66.2397 473.178C66.5712 473.178 66.8973 473.093 67.1868 472.931L76.554 467.698L76.5539 467.698Z" fill="#FCCA3F"/>
<path d="M67.1995 472.86C66.9078 473.023 66.5792 473.109 66.2452 473.109C65.9111 473.108 65.5826 473.023 65.2909 472.86L55.9818 467.686L55.9063 467.766L65.2909 473.015C65.5826 473.178 65.9111 473.264 66.2452 473.264C66.5793 473.264 66.9078 473.178 67.1996 473.015L76.6384 467.742L76.6153 467.6L67.1996 472.86L67.1995 472.86Z" fill="#EEAB37"/>
</g>
</g>
<g filter="url(#filter6_di_35_118)">
<rect x="310" y="359" width="38" height="38" rx="9.5" fill="#EAD9FF"/>
<path d="M329.258 378.039C329.258 375.414 331.386 373.276 334.021 373.276C336.646 373.276 338.784 375.403 338.784 378.039C338.784 380.663 336.656 382.802 334.021 382.802C331.397 382.802 329.258 380.663 329.258 378.039Z" fill="#1ABCFE"/>
<path d="M319.81 387.487C319.81 384.863 321.92 382.724 324.534 382.724H329.258V387.487C329.258 390.112 327.148 392.25 324.534 392.25C321.92 392.25 319.81 390.122 319.81 387.487Z" fill="#0ACF83"/>
<path d="M329.258 363.761V373.276H334.021C336.646 373.276 338.784 371.148 338.784 368.513C338.784 365.888 336.656 363.75 334.021 363.75H329.258V363.761Z" fill="#FF7262"/>
<path d="M319.81 368.552C319.81 371.155 321.92 373.276 324.534 373.276H329.258V363.827H324.534C321.92 363.827 319.81 365.938 319.81 368.552Z" fill="#F24E1E"/>
<path d="M319.81 378.039C319.81 380.663 321.92 382.802 324.534 382.802H329.258V373.276H324.534C321.92 373.276 319.81 375.414 319.81 378.039Z" fill="#A259FF"/>
</g>
<defs>
<filter id="filter0_di_35_118" x="303.125" y="19.5" width="61.75" height="61.75" filterUnits="userSpaceOnUse" color-interpolation-filters="sRGB">
<feFlood flood-opacity="0" result="BackgroundImageFix"/>
<feColorMatrix in="SourceAlpha" type="matrix" values="0 0 0 0 0 0 0 0 0 0 0 0 0 0 0 0 0 0 127 0" result="hardAlpha"/>
<feOffset dy="2.375"/>
<feGaussianBlur stdDeviation="5.9375"/>
<feComposite in2="hardAlpha" operator="out"/>
<feColorMatrix type="matrix" values="0 0 0 0 1 0 0 0 0 0.933333 0 0 0 0 0.752941 0 0 0 0.4 0"/>
<feBlend mode="normal" in2="BackgroundImageFix" result="effect1_dropShadow_35_118"/>
<feBlend mode="normal" in="SourceGraphic" in2="effect1_dropShadow_35_118" result="shape"/>
<feColorMatrix in="SourceAlpha" type="matrix" values="0 0 0 0 0 0 0 0 0 0 0 0 0 0 0 0 0 0 127 0" result="hardAlpha"/>
<feOffset dy="-0.59375"/>
<feGaussianBlur stdDeviation="0.296875"/>
<feComposite in2="hardAlpha" operator="arithmetic" k2="-1" k3="1"/>
<feColorMatrix type="matrix" values="0 0 0 0 0 0 0 0 0 0 0 0 0 0 0 0 0 0 0.2 0"/>
<feBlend mode="normal" in2="shape" result="effect2_innerShadow_35_118"/>
</filter>
<filter id="filter1_di_35_118" x="-2.875" y="148.5" width="61.75" height="61.75" filterUnits="userSpaceOnUse" color-interpolation-filters="sRGB">
<feFlood flood-opacity="0" result="BackgroundImageFix"/>
<feColorMatrix in="SourceAlpha" type="matrix" values="0 0 0 0 0 0 0 0 0 0 0 0 0 0 0 0 0 0 127 0" result="hardAlpha"/>
<feOffset dy="2.375"/>
<feGaussianBlur stdDeviation="5.9375"/>
<feComposite in2="hardAlpha" operator="out"/>
<feColorMatrix type="matrix" values="0 0 0 0 0.34902 0 0 0 0 0.588235 0 0 0 0 0.211765 0 0 0 0.4 0"/>
<feBlend mode="normal" in2="BackgroundImageFix" result="effect1_dropShadow_35_118"/>
<feBlend mode="normal" in="SourceGraphic" in2="effect1_dropShadow_35_118" result="shape"/>
<feColorMatrix in="SourceAlpha" type="matrix" values="0 0 0 0 0 0 0 0 0 0 0 0 0 0 0 0 0 0 127 0" result="hardAlpha"/>
<feOffset dy="-0.59375"/>
<feGaussianBlur stdDeviation="0.296875"/>
<feComposite in2="hardAlpha" operator="arithmetic" k2="-1" k3="1"/>
<feColorMatrix type="matrix" values="0 0 0 0 0 0 0 0 0 0 0 0 0 0 0 0 0 0 0.2 0"/>
<feBlend mode="normal" in2="shape" result="effect2_innerShadow_35_118"/>
</filter>
<filter id="filter2_di_35_118" x="139.125" y="0.5" width="61.75" height="61.75" filterUnits="userSpaceOnUse" color-interpolation-filters="sRGB">
<feFlood flood-opacity="0" result="BackgroundImageFix"/>
<feColorMatrix in="SourceAlpha" type="matrix" values="0 0 0 0 0 0 0 0 0 0 0 0 0 0 0 0 0 0 127 0" result="hardAlpha"/>
<feOffset dy="2.375"/>
<feGaussianBlur stdDeviation="5.9375"/>
<feComposite in2="hardAlpha" operator="out"/>
<feColorMatrix type="matrix" values="0 0 0 0 0.0784314 0 0 0 0 0.321569 0 0 0 0 0.894118 0 0 0 0.12 0"/>
<feBlend mode="normal" in2="BackgroundImageFix" result="effect1_dropShadow_35_118"/>
<feBlend mode="normal" in="SourceGraphic" in2="effect1_dropShadow_35_118" result="shape"/>
<feColorMatrix in="SourceAlpha" type="matrix" values="0 0 0 0 0 0 0 0 0 0 0 0 0 0 0 0 0 0 127 0" result="hardAlpha"/>
<feOffset dy="-0.59375"/>
<feGaussianBlur stdDeviation="0.296875"/>
<feComposite in2="hardAlpha" operator="arithmetic" k2="-1" k3="1"/>
<feColorMatrix type="matrix" values="0 0 0 0 0 0 0 0 0 0 0 0 0 0 0 0 0 0 0.2 0"/>
<feBlend mode="normal" in2="shape" result="effect2_innerShadow_35_118"/>
</filter>
<filter id="filter3_di_35_118" x="35.125" y="430.5" width="61.75" height="61.75" filterUnits="userSpaceOnUse" color-interpolation-filters="sRGB">
<feFlood flood-opacity="0" result="BackgroundImageFix"/>
<feColorMatrix in="SourceAlpha" type="matrix" values="0 0 0 0 0 0 0 0 0 0 0 0 0 0 0 0 0 0 127 0" result="hardAlpha"/>
<feOffset dy="2.375"/>
<feGaussianBlur stdDeviation="5.9375"/>
<feComposite in2="hardAlpha" operator="out"/>
<feColorMatrix type="matrix" values="0 0 0 0 1 0 0 0 0 0.74902 0 0 0 0 0.490196 0 0 0 0.12 0"/>
<feBlend mode="normal" in2="BackgroundImageFix" result="effect1_dropShadow_35_118"/>
<feBlend mode="normal" in="SourceGraphic" in2="effect1_dropShadow_35_118" result="shape"/>
<feColorMatrix in="SourceAlpha" type="matrix" values="0 0 0 0 0 0 0 0 0 0 0 0 0 0 0 0 0 0 127 0" result="hardAlpha"/>
<feOffset dy="-0.59375"/>
<feGaussianBlur stdDeviation="0.296875"/>
<feComposite in2="hardAlpha" operator="arithmetic" k2="-1" k3="1"/>
<feColorMatrix type="matrix" values="0 0 0 0 0 0 0 0 0 0 0 0 0 0 0 0 0 0 0.2 0"/>
<feBlend mode="normal" in2="shape" result="effect2_innerShadow_35_118"/>
</filter>
<filter id="filter4_i_35_118" x="56.0079" y="444.859" width="8.19543" height="22.7231" filterUnits="userSpaceOnUse" color-interpolation-filters="sRGB">
<feFlood flood-opacity="0" result="BackgroundImageFix"/>
<feBlend mode="normal" in="SourceGraphic" in2="BackgroundImageFix" result="shape"/>
<feColorMatrix in="SourceAlpha" type="matrix" values="0 0 0 0 0 0 0 0 0 0 0 0 0 0 0 0 0 0 127 0" result="hardAlpha"/>
<feOffset/>
<feGaussianBlur stdDeviation="73.9926"/>
<feComposite in2="hardAlpha" operator="arithmetic" k2="-1" k3="1"/>
<feColorMatrix type="matrix" values="0 0 0 0 0 0 0 0 0 0 0 0 0 0 0 0 0 0 0.06 0"/>
<feBlend mode="normal" in2="shape" result="effect1_innerShadow_35_118"/>
</filter>
<filter id="filter5_i_35_118" x="64.2463" y="448.859" width="5.17236" height="8.00793" filterUnits="userSpaceOnUse" color-interpolation-filters="sRGB">
<feFlood flood-opacity="0" result="BackgroundImageFix"/>
<feBlend mode="normal" in="SourceGraphic" in2="BackgroundImageFix" result="shape"/>
<feColorMatrix in="SourceAlpha" type="matrix" values="0 0 0 0 0 0 0 0 0 0 0 0 0 0 0 0 0 0 127 0" result="hardAlpha"/>
<feOffset dx="4.22815" dy="-38.0533"/>
<feGaussianBlur stdDeviation="14.7985"/>
<feComposite in2="hardAlpha" operator="arithmetic" k2="-1" k3="1"/>
<feColorMatrix type="matrix" values="0 0 0 0 0 0 0 0 0 0 0 0 0 0 0 0 0 0 0.09 0"/>
<feBlend mode="normal" in2="shape" result="effect1_innerShadow_35_118"/>
</filter>
<filter id="filter6_di_35_118" x="298.125" y="349.5" width="61.75" height="61.75" filterUnits="userSpaceOnUse" color-interpolation-filters="sRGB">
<feFlood flood-opacity="0" result="BackgroundImageFix"/>
<feColorMatrix in="SourceAlpha" type="matrix" values="0 0 0 0 0 0 0 0 0 0 0 0 0 0 0 0 0 0 127 0" result="hardAlpha"/>
<feOffset dy="2.375"/>
<feGaussianBlur stdDeviation="5.9375"/>
<feComposite in2="hardAlpha" operator="out"/>
<feColorMatrix type="matrix" values="0 0 0 0 0.917647 0 0 0 0 0.85098 0 0 0 0 1 0 0 0 0.4 0"/>
<feBlend mode="normal" in2="BackgroundImageFix" result="effect1_dropShadow_35_118"/>
<feBlend mode="normal" in="SourceGraphic" in2="effect1_dropShadow_35_118" result="shape"/>
<feColorMatrix in="SourceAlpha" type="matrix" values="0 0 0 0 0 0 0 0 0 0 0 0 0 0 0 0 0 0 127 0" result="hardAlpha"/>
<feOffset dy="-0.59375"/>
<feGaussianBlur stdDeviation="0.296875"/>
<feComposite in2="hardAlpha" operator="arithmetic" k2="-1" k3="1"/>
<feColorMatrix type="matrix" values="0 0 0 0 0 0 0 0 0 0 0 0 0 0 0 0 0 0 0.2 0"/>
<feBlend mode="normal" in2="shape" result="effect2_innerShadow_35_118"/>
</filter>
<linearGradient id="paint0_linear_35_118" x1="171.781" y1="37.0368" x2="172.342" y2="37.5887" gradientUnits="userSpaceOnUse">
<stop offset="0.2" stop-opacity="0.15"/>
<stop offset="0.85" stop-color="#616161" stop-opacity="0.01"/>
</linearGradient>
<linearGradient id="paint1_linear_35_118" x1="169.801" y1="37.0376" x2="175.678" y2="37.0376" gradientUnits="userSpaceOnUse">
<stop offset="0.2" stop-opacity="0.55"/>
<stop offset="0.85" stop-color="#616161" stop-opacity="0.01"/>
</linearGradient>
<clipPath id="clip0_35_118">
<rect width="27.9062" height="25.5312" fill="white" transform="translate(320.344 34.9375)"/>
</clipPath>
<clipPath id="clip1_35_118">
<rect width="20.7812" height="26.125" fill="white" transform="translate(159.906 15.9375)"/>
</clipPath>
<clipPath id="clip2_35_118">
<rect width="20.7812" height="28.5488" fill="white" transform="translate(55.9062 444.75)"/>
</clipPath>
</defs>
</svg>
