<svg width="64" height="64" viewBox="0 0 64 64" fill="none" xmlns="http://www.w3.org/2000/svg">
<rect width="64" height="64" rx="12" fill="white"/>
<path fill-rule="evenodd" clip-rule="evenodd" d="M27.6862 18.948C30.453 18.8785 33.1928 18.8785 35.9596 18.948L36.042 18.9501C38.2022 19.0043 39.9404 19.048 41.3334 19.2906C42.7919 19.5446 43.9772 20.0317 44.9786 21.0369C45.9758 22.0379 46.4604 23.2062 46.7096 24.641C46.9468 26.0072 46.983 27.703 47.0277 29.8037L47.0295 29.8869C47.0497 30.8315 47.0432 32.3512 47.0278 33.6762C47.019 34.4245 47.0147 34.7987 46.7768 34.9129C46.5389 35.0272 46.2412 34.7944 45.6459 34.329C45.2476 34.0175 44.8838 33.7401 44.7555 33.6628L44.7507 33.6599L44.7375 33.6519C44.5054 33.5104 42.9121 32.5386 41.0607 33.4367C39.9325 33.984 39.4098 34.8847 39.1662 35.5659C39.0381 35.9242 38.974 36.1033 38.8639 36.1809C38.7538 36.2584 38.5914 36.2584 38.2666 36.2584H34.6562C32.7002 36.2584 31.1146 37.8441 31.1146 39.8001C31.1146 41.7561 32.7002 43.3417 34.6562 43.3417L38.4311 43.3417C38.6243 43.3417 38.7209 43.3417 38.7933 43.369C38.8762 43.4002 38.9328 43.443 38.9854 43.5142C39.0314 43.5765 39.0477 43.6341 39.0803 43.7492L39.0803 43.7492C39.2261 44.2639 39.299 44.5212 39.2746 44.6273C39.2446 44.758 39.1954 44.8261 39.0808 44.8956C38.9877 44.9521 38.816 44.9596 38.4727 44.9746C37.6985 45.0084 36.8466 45.0298 35.9599 45.0521L35.9596 45.0521C33.1928 45.1216 30.453 45.1216 27.6862 45.0521L27.6038 45.05C25.4436 44.9958 23.7054 44.9521 22.3124 44.7095C20.854 44.4555 19.6686 43.9684 18.6672 42.9632C17.67 41.9622 17.1854 40.7939 16.9362 39.3591C16.699 37.9929 16.6629 36.2971 16.6181 34.1964L16.6163 34.1132C16.5862 32.7017 16.5862 31.2984 16.6163 29.8869L16.6181 29.8037C16.6629 27.703 16.699 26.0072 16.9362 24.641C17.1854 23.2062 17.67 22.0379 18.6672 21.0369C19.6686 20.0317 20.8539 19.5446 22.3124 19.2906C23.7054 19.048 25.4437 19.0043 27.6038 18.9501L27.6862 18.948ZM25.2805 26.1271C24.7754 25.8285 24.1238 25.9958 23.8251 26.501C23.5265 27.0061 23.6939 27.6577 24.199 27.9563L28.3669 30.4205C29.6006 31.1499 30.6651 31.6459 31.8231 31.6459C32.981 31.6459 34.0456 31.1499 35.2793 30.4205L39.4472 27.9563C39.9523 27.6577 40.1197 27.0061 39.821 26.501C39.5224 25.9958 38.8708 25.8285 38.3657 26.1271L34.1978 28.5913C33.0016 29.2985 32.3657 29.5209 31.8231 29.5209C31.2805 29.5209 30.6445 29.2985 29.4484 28.5913L25.2805 26.1271Z" fill="#1452E4"/>
<path fill-rule="evenodd" clip-rule="evenodd" d="M34.6562 41.2166C33.8738 41.2166 33.2395 40.5824 33.2395 39.8C33.2395 39.0176 33.8738 38.3833 34.6562 38.3833L41.0312 38.3833L41.0312 37.5414C41.031 37.2926 41.0308 36.9871 41.0621 36.7372L41.0627 36.7324C41.085 36.5533 41.1868 35.7372 41.988 35.3485C42.791 34.959 43.4996 35.3868 43.6528 35.4793L43.6586 35.4827C43.8753 35.6134 44.1174 35.8034 44.3165 35.9597L44.3594 35.9934C44.8918 36.4108 45.5778 36.9519 46.1317 37.4908C46.4081 37.7598 46.6932 38.0675 46.9182 38.3947C47.1183 38.6854 47.4062 39.1816 47.4062 39.7917C47.4062 40.4018 47.1183 40.8979 46.9182 41.1887C46.6932 41.5158 46.4081 41.8236 46.1317 42.0925C45.5778 42.6315 44.8918 43.1726 44.3594 43.59L44.3165 43.6236C44.1174 43.7799 43.8753 43.97 43.6586 44.1006L43.6528 44.104C43.4996 44.1966 42.791 44.6243 41.988 44.2348C41.1868 43.8461 41.085 43.0301 41.0627 42.8509L41.0621 42.8462C41.0308 42.5962 41.031 42.2907 41.0312 42.0419L41.0312 41.2166L34.6562 41.2166Z" fill="#1452E4"/>
</svg>
