<svg width="64" height="64" viewBox="0 0 64 64" fill="none" xmlns="http://www.w3.org/2000/svg">
<rect width="64" height="64" rx="12" fill="white"/>
<path fill-rule="evenodd" clip-rule="evenodd" d="M46.5208 32.081L46.5208 32.081L46.5208 32.081C46.5208 35.1845 46.5208 37.6221 46.2649 39.5253C46.0027 41.4756 45.4544 43.0229 44.2386 44.2387C43.0228 45.4545 41.4755 46.0028 39.5252 46.265C37.622 46.5209 35.1844 46.5208 32.0809 46.5208L31.9189 46.5208C28.8154 46.5208 26.3778 46.5209 24.4746 46.265C22.5244 46.0028 20.977 45.4545 19.7612 44.2387C18.5454 43.0229 17.9971 41.4756 17.7349 39.5253C17.4791 37.6221 17.4791 35.1845 17.4791 32.081L17.4791 31.919C17.4791 28.8155 17.4791 26.3779 17.7349 24.4747C17.9971 22.5244 18.5454 20.9771 19.7612 19.7613C20.977 18.5455 22.5244 17.9972 24.4746 17.735C26.3778 17.4791 28.8154 17.4791 31.9189 17.4792L31.9189 17.4792L32.0809 17.4792L32.0809 17.4792C35.1844 17.4791 37.622 17.4791 39.5252 17.735C41.4755 17.9972 43.0228 18.5455 44.2386 19.7613C45.4544 20.9771 46.0027 22.5244 46.2649 24.4747C46.5208 26.3779 46.5208 28.8155 46.5208 31.919L46.5208 31.919L46.5208 31.919L46.5208 32.081ZM40.4999 27.0417C40.4999 27.8241 39.8657 28.4583 39.0833 28.4583L30.2886 28.4583C29.742 29.7092 28.4939 30.5833 27.0416 30.5833C25.0856 30.5833 23.4999 28.9977 23.4999 27.0417C23.4999 25.0857 25.0856 23.5 27.0416 23.5C28.4939 23.5 29.742 24.3741 30.2886 25.625L39.0833 25.625C39.8657 25.625 40.4999 26.2593 40.4999 27.0417ZM40.4999 36.9583C40.4999 35.0023 38.9143 33.4167 36.9583 33.4167C35.5059 33.4167 34.2578 34.2908 33.7113 35.5417L24.9166 35.5417C24.1342 35.5417 23.4999 36.1759 23.4999 36.9583C23.4999 37.7407 24.1342 38.375 24.9166 38.375L33.7113 38.375C34.2578 39.6258 35.5059 40.5 36.9583 40.5C38.9143 40.5 40.4999 38.9143 40.4999 36.9583Z" fill="#118266"/>
</svg>
