<svg width="64" height="64" viewBox="0 0 64 64" fill="none" xmlns="http://www.w3.org/2000/svg">
<rect width="64" height="64" rx="12" fill="white"/>
<path fill-rule="evenodd" clip-rule="evenodd" d="M31.9986 16.7708C29.6168 16.7708 27.6805 17.5754 25.9916 18.4504C25.4813 18.7148 25.0072 18.9763 24.5542 19.2262L24.5541 19.2262C23.4456 19.8377 22.4632 20.3797 21.3843 20.7239C20.7507 20.9261 20.1893 21.1051 19.7914 21.2611C19.4168 21.4079 18.9716 21.609 18.6557 21.9601C18.372 22.2754 18.2262 22.6294 18.1296 22.968C18.0419 23.2754 17.9669 23.6916 17.8949 24.0908C16.1412 33.8172 19.9761 43.0316 29.3409 46.617C30.2614 46.9696 30.9393 47.2292 32.0033 47.2292C33.0673 47.2292 33.7452 46.9695 34.6656 46.617C44.0302 43.0314 47.8612 33.8168 46.107 24.0908L46.107 24.0907C46.0351 23.6914 45.96 23.2752 45.8723 22.9678C45.7756 22.6292 45.6298 22.2751 45.346 21.9598C45.0301 21.6087 44.5849 21.4076 44.2103 21.2609C43.8123 21.105 43.251 20.926 42.6174 20.724C41.5379 20.3797 40.5547 19.8376 39.4453 19.226C38.9921 18.9762 38.5178 18.7147 38.0073 18.4503C36.3176 17.5754 34.3805 16.7708 31.9986 16.7708ZM28.4583 27.3073V28.8113C28.3519 28.8436 28.2462 28.8823 28.1411 28.929C27.2625 29.3189 26.5868 30.0558 26.2394 30.9545C26.0893 31.3426 26.0317 31.7411 26.0049 32.1614C25.9792 32.5658 25.9792 33.0585 25.9792 33.6489V33.7158C25.9792 34.3061 25.9792 34.7988 26.0049 35.2032C26.0317 35.6235 26.0893 36.022 26.2394 36.4101C26.5868 37.3088 27.2625 38.0457 28.1411 38.4356C28.5269 38.6068 28.9219 38.6715 29.3265 38.7011C29.7112 38.7292 30.1774 38.7292 30.7234 38.7292H33.2766C33.8226 38.7292 34.2888 38.7292 34.6735 38.7011C35.0781 38.6715 35.4731 38.6068 35.8589 38.4356C36.7375 38.0457 37.4132 37.3087 37.7606 36.41C37.9107 36.022 37.9683 35.6235 37.9951 35.2032C38.0209 34.7988 38.0208 34.3061 38.0208 33.7157V33.6489C38.0208 33.0585 38.0209 32.5658 37.9951 32.1614C37.9683 31.7411 37.9107 31.3426 37.7606 30.9545C37.4132 30.0558 36.7375 29.3189 35.8589 28.929C35.7538 28.8823 35.6481 28.8436 35.5417 28.8113V27.3073C35.5417 25.3641 33.9193 23.8542 32 23.8542C30.0807 23.8542 28.4583 25.3641 28.4583 27.3073ZM32 25.9792C31.1808 25.9792 30.5833 26.6099 30.5833 27.3073V28.6354L30.7234 28.6354H33.2766L33.4167 28.6354V27.3073C33.4167 26.6099 32.8192 25.9792 32 25.9792Z" fill="#1472A9"/>
</svg>
